# xmcd
#
# Track frame offsets: 
#        150
#        21237
#        38760
#
# Disc length: 778 seconds
#
# Revision: 9
# Processed by: cddbd v1.5.2PL0 Copyright (c) Steve Scherf et al.
# Submitted via: ExactAudioCopy v1.0b6
#
DISCID=1b030803
DTITLE=Oasis / Go Let It Out [2000 Helter Skelter Europe CD Single]
DYEAR=2000
DGENRE=Rock
TTITLE0=Go Let It Out
TTITLE1=Let's All Make Believe
TTITLE2=(As Long As They've Got) Cigarettes In Hell
EXTD= YEAR: 2000
EXTT0=
EXTT1=
EXTT2=
PLAYORDER=
